<svg id="visual" viewBox="0 0 900 600" width="900" height="600" xmlns="http://www.w3.org/2000/svg" xmlns:xlink="http://www.w3.org/1999/xlink" version="1.1"><rect x="0" y="0" width="900" height="600" fill="#26093a"></rect><path d="M274 600L270 600L270 514L171 514L171 429L320 429L320 343L338 343L338 257L282 257L282 171L308 171L308 86L209 86L209 0L900 0L900 86L900 86L900 171L900 171L900 257L900 257L900 343L900 343L900 429L900 429L900 514L900 514L900 600L900 600Z" fill="#9900ff"></path><path d="M456 600L507 600L507 514L483 514L483 429L467 429L467 343L388 343L388 257L502 257L502 171L472 171L472 86L435 86L435 0L900 0L900 86L900 86L900 171L900 171L900 257L900 257L900 343L900 343L900 429L900 429L900 514L900 514L900 600L900 600Z" fill="#8200d9"></path><path d="M580 600L557 600L557 514L624 514L624 429L507 429L507 343L550 343L550 257L597 257L597 171L600 171L600 86L623 86L623 0L900 0L900 86L900 86L900 171L900 171L900 257L900 257L900 343L900 343L900 429L900 429L900 514L900 514L900 600L900 600Z" fill="#6c00b4"></path><path d="M746 600L678 600L678 514L737 514L737 429L772 429L772 343L673 343L673 257L740 257L740 171L767 171L767 86L710 86L710 0L900 0L900 86L900 86L900 171L900 171L900 257L900 257L900 343L900 343L900 429L900 429L900 514L900 514L900 600L900 600Z" fill="#560090"></path></svg>